<svg xmlns="http://www.w3.org/2000/svg" viewBox="4.28408e-8 0 145 62">
  <path d="M89.2416 12.5351C91.3072 11.3356 93.8467 10.5997 95.4064 8.69607C96.849 6.93567 96.5264 4.62419 94.684 3.28803C93.3474 2.31817 91.6585 1.86878 90.0115 2.00546C83.8667 2.51061 80.1431 9.26028 77.8996 14.0757C76.1511 17.8283 75.1967 21.2376 72.243 27.4372C71.7703 28.429 70.9959 30.1981 70.3928 31.2489C69.7411 32.386 68.9845 33.2914 68.9845 33.2914C68.9845 33.2914 68.6796 32.0296 68.7647 30.1227C68.9005 27.0578 69.3733 24.4413 70.6436 21.7099C71.313 20.2699 71.8432 18.3892 71.5946 16.8234C71.4466 15.8853 70.7529 14.9428 69.8991 14.512C67.9804 13.5432 65.6541 14.5218 64.5517 15.9115C63.3057 17.4817 62.5646 20.4733 62.1282 22.4141C61.608 24.7256 61.2877 27.6111 61.5605 30.372C61.8355 33.1547 62.347 35.6072 63.6791 37.8466C65.6464 41.1552 69.8361 41.4997 73.7232 36.5038C76.4449 33.006 81.4631 21.9275 82.3887 20.3114C84.0887 17.3439 86.2338 14.2834 89.2416 12.5362V12.5351ZM86.6547 4.47439C87.0148 4.15183 87.4467 3.92659 87.8885 3.73305C87.9073 3.72431 87.9261 3.71665 87.9448 3.70791C88.3845 3.51765 88.8329 3.34708 89.3024 3.2432C89.7641 3.14152 90.2833 3.05623 90.7571 3.09559C91.1172 3.12621 91.558 3.27382 91.6253 3.67401C91.6828 4.01297 91.4221 4.3399 91.1216 4.47002C90.7991 4.60997 90.407 4.62091 90.0601 4.59248C89.4449 4.54218 87.9769 4.81663 87.4224 4.98392C87.0435 5.09873 86.1013 4.96643 86.6536 4.4722L86.6547 4.47439ZM67.659 16.104C67.3486 16.2625 67.0647 16.4571 66.8471 16.7305C66.6471 16.9809 66.498 17.2039 66.1987 17.3439C65.9888 17.4423 65.695 17.5035 65.5481 17.2728C65.294 16.8759 65.5657 16.3511 65.8574 16.0624C66.2506 15.6743 66.6571 15.4501 67.1807 15.2675C67.4159 15.1855 67.9649 15.074 68.1339 15.3309C68.3571 15.6688 67.9108 15.9739 67.6601 16.1029L67.659 16.104ZM59.5149 14.9265C57.4825 13.1891 54.3112 14.277 52.9956 16.3173C51.8115 18.1554 51.5641 20.4504 50.972 22.4864C50.317 24.7399 49.3284 26.9453 47.8637 28.8009C46.6564 30.3306 43.5293 33.5627 41.2516 32.4594C39.4169 31.5519 41.2085 28.803 41.9143 27.7195C43.4133 25.4211 45.1342 23.2605 46.7028 21.007C47.6229 19.684 49.0379 17.9968 48.4425 16.2397C47.6836 13.9982 44.4682 13.4449 42.6246 14.7231C40.9788 15.8636 40.2928 17.9268 39.5682 19.661C38.8712 21.3306 38.2449 23.0331 37.3811 24.6284C35.4834 28.1339 31.5577 33.4009 34.4528 37.1086C35.2724 38.1583 36.4908 38.787 37.771 39.1085C39.5284 39.5502 41.4471 39.6301 43.1957 39.196C47.2606 38.1857 49.1207 35.3231 49.9425 33.9815C49.9459 34.0208 49.9481 34.0591 49.9536 34.0985C50.211 35.9179 50.9201 37.0791 51.1786 37.4115H51.1808C52.3097 39.2441 55.1231 39.8356 57.2306 38.9828C58.6975 38.3901 60.1357 36.6833 59.5702 35.0355C59.2344 34.0558 58.3231 33.3648 57.5642 32.7098C56.7468 32.0046 56.0719 31.1965 56.0863 30.0659C56.1227 27.1935 57.6117 24.2337 58.8312 21.6937C59.3747 20.5609 60.2495 19.1515 60.4892 17.7923C60.6715 16.7612 60.487 15.7586 59.5161 14.9276L59.5149 14.9265ZM42.8444 16.0844C43.2377 15.6963 43.6441 15.4721 44.1677 15.2895C44.403 15.2075 44.952 15.096 45.121 15.3529C45.3441 15.6908 44.8979 15.9959 44.6471 16.1249C44.3367 16.2834 44.0528 16.4781 43.8352 16.7514C43.6353 17.0018 43.4862 17.2249 43.1868 17.3648C42.977 17.4632 42.6831 17.5245 42.5362 17.2937C42.2822 16.8968 42.5539 16.372 42.8455 16.0833L42.8444 16.0844ZM56.6066 16.1249C56.2962 16.2834 56.0123 16.4781 55.7947 16.7514C55.5947 17.0018 55.4456 17.2249 55.1463 17.3648C54.9364 17.4632 54.6426 17.5245 54.4957 17.2937C54.2416 16.8968 54.5133 16.372 54.805 16.0833C55.1982 15.6952 55.6047 15.471 56.1283 15.2884C56.3635 15.2064 56.9125 15.0949 57.0815 15.3518C57.3047 15.6897 56.8584 15.9948 56.6077 16.1238L56.6066 16.1249Z
M59.5149 14.9265C57.4825 13.1891 54.3112 14.277 52.9956 16.3173C51.8115 18.1554 51.5641 20.4504 50.972 22.4864C50.317 24.7399 49.3284 26.9453 47.8637 28.8009C46.6564 30.3306 43.5293 33.5627 41.2516 32.4594C39.4169 31.5519 41.2085 28.803 41.9143 27.7195C43.4133 25.4211 45.1342 23.2605 46.7028 21.007C47.6229 19.684 49.0379 17.9968 48.4425 16.2397C47.6836 13.9982 44.4682 13.4449 42.6246 14.7231C40.9788 15.8636 40.2928 17.9268 39.5682 19.661C38.8712 21.3306 38.2449 23.0331 37.3811 24.6284C35.4834 28.1339 31.5577 33.4009 34.4528 37.1086C35.2724 38.1583 36.4908 38.787 37.771 39.1085C39.5284 39.5502 41.4471 39.6301 43.1957 39.196C47.2606 38.1857 49.1207 35.3231 49.9425 33.9815C49.9459 34.0208 49.9481 34.0591 49.9536 34.0985C50.211 35.9179 50.9201 37.0791 51.1786 37.4115H51.1808C52.3097 39.2441 55.1231 39.8356 57.2306 38.9828C58.6975 38.3901 60.1357 36.6833 59.5702 35.0355C59.2344 34.0558 58.3231 33.3648 57.5642 32.7098C56.7468 32.0046 56.0719 31.1965 56.0863 30.0659C56.1227 27.1935 57.6117 24.2337 58.8312 21.6937C59.3747 20.5609 60.2495 19.1515 60.4892 17.7923C60.6715 16.7612 60.487 15.7586 59.5161 14.9276L59.5149 14.9265ZM42.8444 16.0844C43.2377 15.6963 43.6441 15.4721 44.1677 15.2895C44.403 15.2075 44.952 15.096 45.121 15.3529C45.3441 15.6908 44.8979 15.9959 44.6471 16.1249C44.3367 16.2834 44.0528 16.4781 43.8352 16.7514C43.6353 17.0018 43.4862 17.2249 43.1868 17.3648C42.977 17.4632 42.6831 17.5245 42.5362 17.2937C42.2822 16.8968 42.5539 16.372 42.8455 16.0833L42.8444 16.0844ZM56.6066 16.1249C56.2962 16.2834 56.0123 16.4781 55.7947 16.7514C55.5947 17.0018 55.4456 17.2249 55.1463 17.3648C54.9364 17.4632 54.6426 17.5245 54.4957 17.2937C54.2416 16.8968 54.5133 16.372 54.805 16.0833C55.1982 15.6952 55.6047 15.471 56.1283 15.2884C56.3635 15.2064 56.9125 15.0949 57.0815 15.3518C57.3047 15.6897 56.8584 15.9948 56.6077 16.1238L56.6066 16.1249ZM59.5149 14.9265C57.4825 13.1891 54.3112 14.277 52.9956 16.3173C51.8115 18.1554 51.5641 20.4504 50.972 22.4864C50.317 24.7399 49.3284 26.9453 47.8637 28.8009C46.6564 30.3306 43.5293 33.5627 41.2516 32.4594C39.4169 31.5519 41.2085 28.803 41.9143 27.7195C43.4133 25.4211 45.1342 23.2605 46.7028 21.007C47.6229 19.684 49.0379 17.9968 48.4425 16.2397C47.6836 13.9982 44.4682 13.4449 42.6246 14.7231C40.9788 15.8636 40.2928 17.9268 39.5682 19.661C38.8712 21.3306 38.2449 23.0331 37.3811 24.6284C35.4834 28.1339 31.5577 33.4009 34.4528 37.1086C35.2724 38.1583 36.4908 38.787 37.771 39.1085C39.5284 39.5502 41.4471 39.6301 43.1957 39.196C47.2606 38.1857 49.1207 35.3231 49.9425 33.9815C49.9459 34.0208 49.9481 34.0591 49.9536 34.0985C50.211 35.9179 50.9201 37.0791 51.1786 37.4115H51.1808C52.3097 39.2441 55.1231 39.8356 57.2306 38.9828C58.6975 38.3901 60.1357 36.6833 59.5702 35.0355C59.2344 34.0558 58.3231 33.3648 57.5642 32.7098C56.7468 32.0046 56.0719 31.1965 56.0863 30.0659C56.1227 27.1935 57.6117 24.2337 58.8312 21.6937C59.3747 20.5609 60.2495 19.1515 60.4892 17.7923C60.6715 16.7612 60.487 15.7586 59.5161 14.9276L59.5149 14.9265ZM42.8444 16.0844C43.2377 15.6963 43.6441 15.4721 44.1677 15.2895C44.403 15.2075 44.952 15.096 45.121 15.3529C45.3441 15.6908 44.8979 15.9959 44.6471 16.1249C44.3367 16.2834 44.0528 16.4781 43.8352 16.7514C43.6353 17.0018 43.4862 17.2249 43.1868 17.3648C42.977 17.4632 42.6831 17.5245 42.5362 17.2937C42.2822 16.8968 42.5539 16.372 42.8455 16.0833L42.8444 16.0844ZM56.6066 16.1249C56.2962 16.2834 56.0123 16.4781 55.7947 16.7514C55.5947 17.0018 55.4456 17.2249 55.1463 17.3648C54.9364 17.4632 54.6426 17.5245 54.4957 17.2937C54.2416 16.8968 54.5133 16.372 54.805 16.0833C55.1982 15.6952 55.6047 15.471 56.1283 15.2884C56.3635 15.2064 56.9125 15.0949 57.0815 15.3518C57.3047 15.6897 56.8584 15.9948 56.6077 16.1238L56.6066 16.1249ZM59.5149 14.9265C57.4825 13.1891 54.3112 14.277 52.9956 16.3173C51.8115 18.1554 51.5641 20.4504 50.972 22.4864C50.317 24.7399 49.3284 26.9453 47.8637 28.8009C46.6564 30.3306 43.5293 33.5627 41.2516 32.4594C39.4169 31.5519 41.2085 28.803 41.9143 27.7195C43.4133 25.4211 45.1342 23.2605 46.7028 21.007C47.6229 19.684 49.0379 17.9968 48.4425 16.2397C47.6836 13.9982 44.4682 13.4449 42.6246 14.7231C40.9788 15.8636 40.2928 17.9268 39.5682 19.661C38.8712 21.3306 38.2449 23.0331 37.3811 24.6284C35.4834 28.1339 31.5577 33.4009 34.4528 37.1086C35.2724 38.1583 36.4908 38.787 37.771 39.1085C39.5284 39.5502 41.4471 39.6301 43.1957 39.196C47.2606 38.1857 49.1207 35.3231 49.9425 33.9815C49.9459 34.0208 49.9481 34.0591 49.9536 34.0985C50.211 35.9179 50.9201 37.0791 51.1786 37.4115H51.1808C52.3097 39.2441 55.1231 39.8356 57.2306 38.9828C58.6975 38.3901 60.1357 36.6833 59.5702 35.0355C59.2344 34.0558 58.3231 33.3648 57.5642 32.7098C56.7468 32.0046 56.0719 31.1965 56.0863 30.0659C56.1227 27.1935 57.6117 24.2337 58.8312 21.6937C59.3747 20.5609 60.2495 19.1515 60.4892 17.7923C60.6715 16.7612 60.487 15.7586 59.5161 14.9276L59.5149 14.9265ZM42.8444 16.0844C43.2377 15.6963 43.6441 15.4721 44.1677 15.2895C44.403 15.2075 44.952 15.096 45.121 15.3529C45.3441 15.6908 44.8979 15.9959 44.6471 16.1249C44.3367 16.2834 44.0528 16.4781 43.8352 16.7514C43.6353 17.0018 43.4862 17.2249 43.1868 17.3648C42.977 17.4632 42.6831 17.5245 42.5362 17.2937C42.2822 16.8968 42.5539 16.372 42.8455 16.0833L42.8444 16.0844ZM56.6066 16.1249C56.2962 16.2834 56.0123 16.4781 55.7947 16.7514C55.5947 17.0018 55.4456 17.2249 55.1463 17.3648C54.9364 17.4632 54.6426 17.5245 54.4957 17.2937C54.2416 16.8968 54.5133 16.372 54.805 16.0833C55.1982 15.6952 55.6047 15.471 56.1283 15.2884C56.3635 15.2064 56.9125 15.0949 57.0815 15.3518C57.3047 15.6897 56.8584 15.9948 56.6077 16.1238L56.6066 16.1249ZM59.5149 14.9265C57.4825 13.1891 54.3112 14.277 52.9956 16.3173C51.8115 18.1554 51.5641 20.4504 50.972 22.4864C50.317 24.7399 49.3284 26.9453 47.8637 28.8009C46.6564 30.3306 43.5293 33.5627 41.2516 32.4594C39.4169 31.5519 41.2085 28.803 41.9143 27.7195C43.4133 25.4211 45.1342 23.2605 46.7028 21.007C47.6229 19.684 49.0379 17.9968 48.4425 16.2397C47.6836 13.9982 44.4682 13.4449 42.6246 14.7231C40.9788 15.8636 40.2928 17.9268 39.5682 19.661C38.8712 21.3306 38.2449 23.0331 37.3811 24.6284C35.4834 28.1339 31.5577 33.4009 34.4528 37.1086C35.2724 38.1583 36.4908 38.787 37.771 39.1085C39.5284 39.5502 41.4471 39.6301 43.1957 39.196C47.2606 38.1857 49.1207 35.3231 49.9425 33.9815C49.9459 34.0208 49.9481 34.0591 49.9536 34.0985C50.211 35.9179 50.9201 37.0791 51.1786 37.4115H51.1808C52.3097 39.2441 55.1231 39.8356 57.2306 38.9828C58.6975 38.3901 60.1357 36.6833 59.5702 35.0355C59.2344 34.0558 58.3231 33.3648 57.5642 32.7098C56.7468 32.0046 56.0719 31.1965 56.0863 30.0659C56.1227 27.1935 57.6117 24.2337 58.8312 21.6937C59.3747 20.5609 60.2495 19.1515 60.4892 17.7923C60.6715 16.7612 60.487 15.7586 59.5161 14.9276L59.5149 14.9265ZM42.8444 16.0844C43.2377 15.6963 43.6441 15.4721 44.1677 15.2895C44.403 15.2075 44.952 15.096 45.121 15.3529C45.3441 15.6908 44.8979 15.9959 44.6471 16.1249C44.3367 16.2834 44.0528 16.4781 43.8352 16.7514C43.6353 17.0018 43.4862 17.2249 43.1868 17.3648C42.977 17.4632 42.6831 17.5245 42.5362 17.2937C42.2822 16.8968 42.5539 16.372 42.8455 16.0833L42.8444 16.0844ZM56.6066 16.1249C56.2962 16.2834 56.0123 16.4781 55.7947 16.7514C55.5947 17.0018 55.4456 17.2249 55.1463 17.3648C54.9364 17.4632 54.6426 17.5245 54.4957 17.2937C54.2416 16.8968 54.5133 16.372 54.805 16.0833C55.1982 15.6952 55.6047 15.471 56.1283 15.2884C56.3635 15.2064 56.9125 15.0949 57.0815 15.3518C57.3047 15.6897 56.8584 15.9948 56.6077 16.1238L56.6066 16.1249ZM59.5149 14.9265C57.4825 13.1891 54.3112 14.277 52.9956 16.3173C51.8115 18.1554 51.5641 20.4504 50.972 22.4864C50.317 24.7399 49.3284 26.9453 47.8637 28.8009C46.6564 30.3306 43.5293 33.5627 41.2516 32.4594C39.4169 31.5519 41.2085 28.803 41.9143 27.7195C43.4133 25.4211 45.1342 23.2605 46.7028 21.007C47.6229 19.684 49.0379 17.9968 48.4425 16.2397C47.6836 13.9982 44.4682 13.4449 42.6246 14.7231C40.9788 15.8636 40.2928 17.9268 39.5682 19.661C38.8712 21.3306 38.2449 23.0331 37.3811 24.6284C35.4834 28.1339 31.5577 33.4009 34.4528 37.1086C35.2724 38.1583 36.4908 38.787 37.771 39.1085C39.5284 39.5502 41.4471 39.6301 43.1957 39.196C47.2606 38.1857 49.1207 35.3231 49.9425 33.9815C49.9459 34.0208 49.9481 34.0591 49.9536 34.0985C50.211 35.9179 50.9201 37.0791 51.1786 37.4115H51.1808C52.3097 39.2441 55.1231 39.8356 57.2306 38.9828C58.6975 38.3901 60.1357 36.6833 59.5702 35.0355C59.2344 34.0558 58.3231 33.3648 57.5642 32.7098C56.7468 32.0046 56.0719 31.1965 56.0863 30.0659C56.1227 27.1935 57.6117 24.2337 58.8312 21.6937C59.3747 20.5609 60.2495 19.1515 60.4892 17.7923C60.6715 16.7612 60.487 15.7586 59.5161 14.9276L59.5149 14.9265ZM42.8444 16.0844C43.2377 15.6963 43.6441 15.4721 44.1677 15.2895C44.403 15.2075 44.952 15.096 45.121 15.3529C45.3441 15.6908 44.8979 15.9959 44.6471 16.1249C44.3367 16.2834 44.0528 16.4781 43.8352 16.7514C43.6353 17.0018 43.4862 17.2249 43.1868 17.3648C42.977 17.4632 42.6831 17.5245 42.5362 17.2937C42.2822 16.8968 42.5539 16.372 42.8455 16.0833L42.8444 16.0844ZM56.6066 16.1249C56.2962 16.2834 56.0123 16.4781 55.7947 16.7514C55.5947 17.0018 55.4456 17.2249 55.1463 17.3648C54.9364 17.4632 54.6426 17.5245 54.4957 17.2937C54.2416 16.8968 54.5133 16.372 54.805 16.0833C55.1982 15.6952 55.6047 15.471 56.1283 15.2884C56.3635 15.2064 56.9125 15.0949 57.0815 15.3518C57.3047 15.6897 56.8584 15.9948 56.6077 16.1238L56.6066 16.1249Z 
M141.748 26.0723C139.242 24.1425 134.672 23.8505 131.662 24.711C128.485 25.6197 125.494 27.6993 123.234 29.861C121.459 31.558 119.618 33.3414 116.981 33.3479C115.926 33.3501 114.109 33.1314 113.88 31.8073C113.338 28.667 118.873 27.6272 120.867 26.9263C123.357 26.0505 125.115 24.6498 125.956 22.0442C126.569 20.146 126.028 18.0685 124.777 16.5421C123.529 15.019 121.805 14.3269 119.974 14.1847C116.535 13.9179 113.257 15.0573 110.727 17.2955C109.302 18.5562 108.199 20.1624 107.246 21.7905C106.264 23.4678 105.451 25.3649 104.499 27.0564C104.012 27.9213 103.454 28.6769 102.768 29.3952C100.606 31.6236 98.1597 33.3392 94.6824 33.3479C93.6275 33.3501 91.8105 33.1314 91.5818 31.8073C91.0395 28.667 96.5746 27.6272 98.5684 26.9263C101.058 26.0505 102.817 24.6498 103.657 22.0442C104.27 20.146 103.729 18.0685 102.479 16.5421C101.23 15.019 99.5062 14.3269 97.6759 14.1847C88.7055 13.4893 81.4792 23.9708 82.2657 32.1146C82.5595 35.1543 84.7179 37.6975 87.5081 38.7264C90.0928 39.6799 93.3691 39.5946 95.9748 38.768C98.7286 37.8944 101.075 36.2575 103.119 34.309C103.378 34.063 104.56 32.8789 104.56 32.8789C104.56 32.8789 104.765 33.9963 105.303 34.8623C105.636 35.3981 106.01 35.9065 106.436 36.3712C107.463 37.4909 108.639 38.3722 110.103 38.8489C113.013 39.7969 116.045 39.4754 118.797 38.1961C120.182 37.5521 121.469 36.7124 122.682 35.7928C123.857 34.9028 124.912 33.665 126.252 33.0308C127.486 32.4459 129.038 32.4776 130.223 33.1741C131.092 33.6858 131.391 34.4916 131.927 35.2909C132.875 36.7058 133.834 38.1404 135.444 38.8609C137.557 39.8056 140.255 39.5531 142.12 38.1644C146.056 35.2352 145.979 29.334 141.746 26.0734L141.748 26.0723ZM89.471 19.4736C89.3881 19.4845 89.3252 19.479 89.2788 19.4615C88.9165 19.3249 89.5505 18.4239 89.7228 18.2522C90.084 17.8903 90.8307 17.0998 91.985 16.5017C93.1393 15.9025 93.5767 15.9462 93.8717 16.1879C94.1666 16.4295 93.9667 17.079 93.3569 17.3305C92.6489 17.6235 91.9707 17.9843 91.3167 18.3823C90.9843 18.5846 90.6584 18.7978 90.3381 19.0198C90.0697 19.2057 89.8068 19.4298 89.471 19.4736ZM90.6584 26.3883C90.6584 26.3883 91.034 24.1501 92.2247 22.136C93.1636 20.5484 94.7366 19.2516 96.6055 19.045C97.688 18.9247 99.1185 19.6113 98.6325 21.1771C98.1785 22.6401 96.0731 22.5636 94.2053 23.6318C92.0458 24.8674 90.6584 26.3894 90.6584 26.3894V26.3883ZM111.692 19.4736C111.609 19.4845 111.546 19.479 111.5 19.4615C111.138 19.3249 111.772 18.4239 111.944 18.2522C112.305 17.8903 113.052 17.0998 114.206 16.5017C115.36 15.9025 115.798 15.9462 116.093 16.1879C116.388 16.4295 116.188 17.079 115.578 17.3305C114.87 17.6235 114.192 17.9843 113.538 18.3823C113.205 18.5846 112.88 18.7978 112.559 19.0198C112.291 19.2057 112.028 19.4298 111.692 19.4736ZM113.084 26.2199C113.084 26.2199 113.445 24.1129 114.523 22.136C115.406 20.5178 117.035 19.2516 118.904 19.045C119.986 18.9247 121.452 19.6791 120.931 21.1771C120.454 22.5483 118.618 22.5461 116.504 23.6318C114.31 24.7591 113.084 26.2199 113.084 26.2199ZM138.186 27.9322C137.632 28.0602 137.143 27.7682 136.695 27.4905C135.861 26.9744 134.855 26.9547 133.903 26.9952C133.575 27.0094 133.032 27.1504 132.759 26.899C132.472 26.6333 132.781 26.3271 133.033 26.1828C133.307 26.0253 133.594 25.8919 133.891 25.7859C134.783 25.4666 135.776 25.3824 136.712 25.5114C137.36 25.6 138.131 25.7356 138.643 26.185C139.315 26.7743 139.074 27.7278 138.186 27.9322Z M35.5293 14.9378C34.4192 13.8007 32.5304 13.6399 31.0833 14.3113C28.08 15.7032 26.9787 19.1912 26.1613 22.1128C25.2511 25.3625 24.7551 28.7061 23.9941 31.9897C23.011 36.2277 22.1163 40.4943 20.7963 44.646C20.0573 46.9684 18.6964 50.6259 15.6301 50.3678C14.731 50.2913 13.8959 49.8222 13.2652 49.1814C12.3097 48.2105 12.6289 46.8022 12.3218 45.5994C11.8115 43.5985 9.64099 42.493 7.6969 42.3749C6.09856 42.2787 4.4748 42.7828 3.16476 43.6827C1.08812 45.1085 0.134857 47.2702 0.0133521 49.5674C-0.158964 52.8356 1.35101 56.3805 3.70822 58.4711C7.80184 62.1013 14.172 63.0372 19.1648 60.7837C19.1747 60.7793 19.1847 60.7749 19.1946 60.7695C24.9186 58.1726 26.5545 52.1162 27.2891 46.4359C28.2269 39.1876 28.9791 32.0815 32.812 25.6413C34.1353 23.4173 35.779 21.9062 36.3799 19.3946C36.7477 17.8594 36.6361 16.0728 35.5282 14.9378H35.5293ZM6.55144 45.8312C5.45789 46.1057 4.44167 46.6732 3.49613 47.2242C3.21225 47.3893 2.13748 48.2531 2.1165 47.8037C2.11318 47.7381 2.13196 47.6561 2.17615 47.5533C2.333 47.1925 2.52188 46.8448 2.73728 46.5146C3.32382 45.6191 4.12023 44.8384 5.07902 44.3387C5.61585 44.0588 6.20901 43.8598 6.81212 43.7876C7.42407 43.7144 8.48116 43.6969 8.73743 44.4032C9.17153 45.6038 7.24181 45.6574 6.55254 45.8301L6.55144 45.8312ZM32.2443 16.1985C31.9516 16.3604 31.6842 16.5648 31.4987 16.8437C31.3253 17.1039 31.1585 17.3936 30.868 17.5402C30.6603 17.6451 29.8948 17.9524 29.7103 17.3598C29.5502 16.8448 29.9445 16.4074 30.2969 16.0826C30.6835 15.7262 31.143 15.4408 31.6401 15.2604C31.8764 15.1751 32.4376 15.0647 32.6463 15.3533C32.9214 15.7338 32.4928 16.0619 32.2454 16.1985H32.2443ZM34.7321 9.34653C35.576 9.57286 36.431 9.51819 37.2594 9.23937C38.8964 8.68938 40.1181 7.6397 40.9432 6.145C41.4381 5.24731 41.6866 4.28401 41.553 3.25401C41.3486 1.68277 40.4837 0.603566 38.9218 0.168386C38.7484 0.120276 38.5706 0.0830997 38.3949 0.0415498L37.255 0C37.1998 0.0284288 37.1379 0.026242 37.0783 0.0328025C36.4266 0.101688 35.8069 0.277728 35.2314 0.588258C33.8959 1.30882 33.0045 2.40442 32.4776 3.80181C32.1264 4.7334 31.9927 5.69123 32.2258 6.67312C32.5483 8.03115 33.347 8.97367 34.7321 9.34434V9.34653ZM33.9744 4.22715C34.0196 3.99425 34.0848 3.76463 34.1688 3.54267C34.3963 2.9402 34.7641 2.37709 35.2634 1.9594C35.5429 1.72541 35.8665 1.53188 36.2123 1.4116C36.5635 1.29023 37.1843 1.14371 37.4273 1.5275C37.8404 2.17918 36.7104 2.458 36.3271 2.64935C35.7185 2.95113 35.1949 3.41693 34.7089 3.86304C34.5631 3.99644 34.0439 4.64374 33.9722 4.38241C33.9622 4.34414 33.9611 4.29385 33.9744 4.22715Z" fill="#F95A00"/>
</svg>