<svg width="33" height="32" viewBox="0 0 33 32" fill="none" xmlns="http://www.w3.org/2000/svg">
<path d="M9.51495 9.87623L14.135 3.1731C14.2968 2.93473 14.3579 2.6421 14.3052 2.35887C14.2524 2.07563 14.0899 1.82468 13.8531 1.6606L12.6706 0.849352C12.5532 0.767995 12.421 0.710569 12.2815 0.680357C12.1419 0.650146 11.9978 0.647742 11.8573 0.673283C11.7168 0.698824 11.5828 0.75181 11.4628 0.829208C11.3428 0.906607 11.2393 1.0069 11.1581 1.12435L6.87495 7.31185L6.40745 7.99935L5.4312 9.37435C5.3843 9.43899 5.35618 9.51534 5.34995 9.59495C5.34372 9.67457 5.35963 9.75436 5.39592 9.82551C5.4322 9.89665 5.48744 9.95638 5.55555 9.99809C5.62365 10.0398 5.70196 10.0619 5.78183 10.0619H9.15745C9.22762 10.0622 9.29682 10.0455 9.35909 10.0131C9.42137 9.98079 9.47485 9.93381 9.51495 9.87623V9.87623Z" fill="#F95A00"/>
<path d="M27.6995 9.38127L26.7301 8.00627L26.2557 7.31877L22.0001 1.1244C21.8348 0.886731 21.5821 0.724308 21.2973 0.672755C21.0124 0.621201 20.7188 0.684726 20.4807 0.849395L19.2501 1.66065C19.1326 1.74183 19.0323 1.84538 18.9549 1.96536C18.8775 2.08534 18.8246 2.21941 18.799 2.35988C18.7735 2.50036 18.7759 2.64449 18.8061 2.78404C18.8363 2.92359 18.8937 3.05581 18.9751 3.17315L23.5951 9.87627C23.6332 9.93419 23.6853 9.98156 23.7466 10.014C23.8079 10.0464 23.8764 10.0629 23.9457 10.0619H27.3213C27.4024 10.0662 27.483 10.0477 27.5541 10.0084C27.6251 9.96913 27.6836 9.91068 27.7231 9.83973C27.7625 9.76878 27.7812 9.68818 27.777 9.60712C27.7728 9.52606 27.746 9.4478 27.6995 9.38127V9.38127Z" fill="#F95A00"/>
<path d="M31.5012 13.6161H1.49875C1.28172 13.6107 1.07539 13.5207 0.923814 13.3652C0.77224 13.2098 0.687433 13.0013 0.6875 12.7842V12.9492C0.688021 13.1466 0.744482 13.3399 0.85034 13.5066C0.956199 13.6733 1.10712 13.8066 1.28563 13.8911C1.2822 13.9368 1.2822 13.9828 1.28563 14.0286L3.98062 29.6348C4.05426 29.9686 4.24236 30.2661 4.51232 30.4758C4.78229 30.6855 5.1171 30.7942 5.45875 30.7829H27.5C27.8423 30.7969 28.1785 30.6893 28.449 30.4791C28.7195 30.269 28.907 29.9699 28.9781 29.6348L31.6731 14.0286C31.6763 13.992 31.6763 13.9552 31.6731 13.9186C31.8626 13.8368 32.024 13.7016 32.1376 13.5293C32.2512 13.3571 32.312 13.1555 32.3125 12.9492V12.7842C32.3126 13.0013 32.2278 13.2098 32.0762 13.3652C31.9246 13.5207 31.7183 13.6107 31.5012 13.6161V13.6161ZM9.50125 26.8161L8.97875 26.8642C8.79025 26.8774 8.60105 26.8516 8.42296 26.7885C8.24486 26.7253 8.08169 26.6262 7.94364 26.4971C7.80558 26.3681 7.6956 26.212 7.62057 26.0386C7.54553 25.8652 7.50704 25.6781 7.5075 25.4892L6.94375 18.3736C6.89855 17.9961 7.00265 17.6158 7.23384 17.314C7.46503 17.0122 7.80501 16.8126 8.18125 16.7579L8.69687 16.7029C8.88537 16.6897 9.07457 16.7155 9.25267 16.7786C9.43076 16.8418 9.59393 16.941 9.73199 17.07C9.87004 17.199 9.98002 17.3551 10.0551 17.5285C10.1301 17.7019 10.1686 17.889 10.1681 18.0779L10.7456 25.2073C10.7871 25.5834 10.6815 25.9609 10.4508 26.2608C10.2201 26.5607 9.88228 26.7597 9.50812 26.8161H9.50125ZM17.9369 25.4411C17.9332 25.8191 17.78 26.1804 17.5108 26.4458C17.2415 26.7112 16.8781 26.8591 16.5 26.8573H16.115C15.9281 26.8573 15.7431 26.8205 15.5704 26.749C15.3977 26.6775 15.2408 26.5726 15.1087 26.4405C14.9765 26.3083 14.8717 26.1514 14.8002 25.9788C14.7287 25.8061 14.6919 25.6211 14.6919 25.4342V18.1329C14.6919 17.946 14.7287 17.761 14.8002 17.5883C14.8717 17.4157 14.9765 17.2588 15.1087 17.1266C15.2408 16.9945 15.3977 16.8897 15.5704 16.8181C15.7431 16.7466 15.9281 16.7098 16.115 16.7098H16.5C16.8781 16.7098 17.2408 16.8595 17.5087 17.1262C17.7767 17.3929 17.9282 17.7549 17.93 18.1329L17.9369 25.4411ZM25.1281 25.5167C25.1286 25.7056 25.0901 25.8927 25.0151 26.0661C24.94 26.2395 24.83 26.3956 24.692 26.5246C24.5539 26.6537 24.3908 26.7528 24.2127 26.816C24.0346 26.8791 23.8454 26.9049 23.6569 26.8917L23.1344 26.8436C22.7588 26.7856 22.4205 26.584 22.1909 26.2812C21.9612 25.9785 21.8583 25.5983 21.9038 25.2211L22.4744 18.0917C22.4788 17.9042 22.5205 17.7195 22.5972 17.5483C22.6739 17.3772 22.784 17.223 22.921 17.095C23.0581 16.9669 23.2193 16.8675 23.3952 16.8025C23.5711 16.7376 23.7583 16.7084 23.9456 16.7167L24.4681 16.7717C24.8439 16.8263 25.1832 17.0261 25.4133 17.3282C25.6434 17.6303 25.7459 18.0105 25.6988 18.3873L25.1281 25.5167Z" fill="#F95A00" stroke="#F95A00" stroke-width="0.75" stroke-miterlimit="10"/>
</svg>
